<?xml version="1.0" standalone="no"?>
<!DOCTYPE svg PUBLIC "-//W3C//DTD SVG 20010904//EN"
 "http://www.w3.org/TR/2001/REC-SVG-20010904/DTD/svg10.dtd">
<svg version="1.0" xmlns="http://www.w3.org/2000/svg"
 width="626.000000pt" height="626.000000pt" viewBox="0 0 626.000000 626.000000"
 preserveAspectRatio="xMidYMid meet">
<metadata>
Created by potrace 1.13, written by Peter Selinger 2001-2015
</metadata>
<g transform="translate(0.000000,626.000000) scale(0.100000,-0.100000)"
fill="#000000" stroke="none">
<path d="M115 6054 c-98 -54 -139 -157 -99 -252 32 -77 64 -96 319 -196 132
-51 385 -150 557 -218 80 -31 91 -39 101 -73 3 -11 35 -105 72 -210 37 -104
73 -208 81 -230 21 -64 77 -226 144 -415 34 -96 70 -200 80 -230 18 -57 178
-519 231 -670 54 -153 131 -374 149 -430 11 -30 46 -134 80 -230 34 -96 88
-251 120 -345 32 -93 61 -177 65 -186 4 -11 -6 -24 -34 -43 -42 -29 -56 -56
-109 -206 -17 -47 -47 -130 -67 -185 -20 -55 -47 -129 -60 -165 -12 -36 -48
-137 -80 -225 -63 -179 -67 -225 -25 -285 35 -50 90 -70 193 -70 48 0 87 -4
87 -9 0 -5 -11 -22 -23 -38 -72 -87 -117 -224 -117 -358 0 -166 55 -299 173
-419 119 -120 254 -176 426 -176 264 0 486 163 572 421 28 84 30 246 5 334
-22 72 -59 147 -97 196 -16 20 -29 40 -29 43 0 3 293 6 650 6 358 0 650 -3
650 -7 0 -3 -12 -22 -26 -41 -72 -94 -115 -227 -115 -357 -1 -162 59 -305 176
-420 122 -121 252 -175 421 -175 290 0 531 198 589 485 32 156 -11 346 -106
466 -16 20 -26 39 -22 43 3 3 50 6 104 6 122 0 166 16 206 72 39 57 40 139 1
190 -56 74 87 68 -1717 68 -1455 0 -1621 2 -1621 15 0 9 16 58 35 110 31 85
61 166 122 333 l19 52 1536 0 c1070 0 1545 3 1565 11 37 14 81 56 102 99 10
19 37 96 61 170 49 156 130 410 200 625 27 83 76 238 110 345 34 107 72 227
85 265 13 39 60 185 105 325 100 314 243 760 276 859 29 88 30 133 4 186 -27
56 -40 70 -90 97 l-45 23 -2296 3 -2296 2 -43 123 c-23 67 -52 151 -65 187
-13 36 -38 108 -56 160 -37 105 -75 157 -136 183 -21 9 -102 41 -180 71 -212
83 -397 156 -588 232 -190 75 -272 90 -330 58z m2767 -1424 c2 -5 2 -109 0
-230 l-3 -220 -533 0 -534 0 -12 33 c-54 148 -140 404 -140 414 0 10 119 13
609 13 394 0 611 -4 613 -10z m1328 -220 l0 -230 -460 0 -460 0 0 230 0 230
460 0 460 0 0 -230z m1564 221 c4 -5 -9 -56 -27 -113 -19 -57 -48 -150 -67
-208 -18 -58 -37 -111 -43 -118 -7 -9 -118 -12 -516 -10 l-506 3 -3 215 c-1
118 0 220 2 227 4 10 124 13 580 13 338 0 577 -4 580 -9z m-2889 -873 c3 -13
5 -129 3 -258 l-3 -235 -376 -3 c-352 -2 -377 -1 -384 15 -10 25 -123 347
-144 413 -10 30 -22 63 -26 73 -7 16 19 17 459 17 l466 0 5 -22z m1325 -238
l0 -260 -460 0 -460 0 0 260 0 260 460 0 460 0 0 -260z m1274 183 c-13 -43
-50 -159 -82 -258 l-59 -180 -364 0 -364 0 -3 258 -2 257 449 0 449 0 -24 -77z
m-2604 -1058 l0 -215 -232 2 -233 3 -36 105 c-50 148 -99 287 -105 305 -5 13
31 15 300 15 l306 0 0 -215z m1330 0 l0 -215 -460 0 -460 0 0 215 0 215 460 0
460 0 0 -215z m1000 205 c0 -5 -18 -65 -40 -132 -23 -68 -52 -160 -66 -205
l-25 -83 -235 0 -234 0 0 215 0 215 300 0 c187 0 300 -4 300 -10z m-2713
-1823 c42 -22 98 -78 119 -120 22 -41 30 -150 15 -203 -25 -95 -147 -184 -250
-184 -194 0 -328 203 -247 375 26 57 102 130 150 145 47 14 176 6 213 -13z
m2226 -13 c85 -56 127 -130 127 -227 0 -72 -18 -122 -64 -174 -196 -223 -552
-8 -446 269 23 60 40 82 92 121 51 39 81 47 170 43 65 -2 83 -7 121 -32z"/>
</g>
</svg>
