<?xml version="1.0" standalone="no"?>
<!DOCTYPE svg PUBLIC "-//W3C//DTD SVG 20010904//EN"
 "http://www.w3.org/TR/2001/REC-SVG-20010904/DTD/svg10.dtd">
<svg version="1.0" xmlns="http://www.w3.org/2000/svg"
 width="128.000000pt" height="128.000000pt" viewBox="0 0 128.000000 128.000000"
 preserveAspectRatio="xMidYMid meet">
<metadata>
Created by potrace 1.13, written by Peter Selinger 2001-2015
</metadata>
<g transform="translate(0.000000,128.000000) scale(0.100000,-0.100000)"
fill="#000000" stroke="none">
<path d="M295 1266 c-141 -61 -155 -336 -22 -427 17 -12 38 -29 45 -37 16 -21
15 -105 -3 -175 -22 -86 -22 -573 1 -605 19 -27 64 -29 87 -4 15 16 17 52 17
293 0 214 -3 285 -15 323 -8 27 -15 73 -15 103 0 56 -2 53 71 113 95 78 109
272 26 367 -52 60 -125 78 -192 49z"/>
<path d="M1044 1225 c-56 -96 -91 -270 -101 -493 l-6 -143 35 -29 34 -29 -4
-245 c-4 -188 -2 -249 8 -261 15 -18 61 -20 78 -3 9 9 12 163 12 630 0 677 1
669 -56 573z"/>
<path d="M636 1228 c-14 -65 -36 -285 -31 -308 3 -14 23 -48 45 -73 49 -60 64
-105 55 -165 -4 -26 -9 -181 -11 -345 -5 -322 -5 -327 46 -327 53 0 53 0 48
393 -6 397 -7 381 56 461 28 34 31 44 29 100 -1 33 -8 110 -15 171 -10 87 -16
110 -30 113 -14 3 -15 -12 -11 -162 6 -165 6 -166 -16 -166 -21 0 -21 3 -21
165 0 103 -4 165 -10 165 -6 0 -10 -62 -10 -165 0 -158 -1 -165 -20 -165 -19
0 -20 7 -20 165 0 140 -2 165 -15 165 -13 0 -15 -25 -15 -165 0 -143 -2 -165
-16 -165 -13 0 -15 21 -12 165 2 126 0 165 -9 165 -7 0 -15 -10 -17 -22z"/>
</g>
</svg>
