<?xml version="1.0" standalone="no"?>
<!DOCTYPE svg PUBLIC "-//W3C//DTD SVG 20010904//EN"
 "http://www.w3.org/TR/2001/REC-SVG-20010904/DTD/svg10.dtd">
<svg version="1.0" xmlns="http://www.w3.org/2000/svg"
 width="200.000000pt" height="201.000000pt" viewBox="0 0 200.000000 201.000000"
 preserveAspectRatio="xMidYMid meet">
<metadata>
Created by potrace 1.13, written by Peter Selinger 2001-2015
</metadata>
<g transform="translate(0.000000,201.000000) scale(0.100000,-0.100000)"
fill="#000000" stroke="none">
<path d="M963 1750 c-22 -9 -23 -14 -24 -137 l-1 -128 -14 60 c-8 33 -21 79
-30 103 l-16 42 -60 -32 c-33 -17 -73 -47 -88 -67 -33 -39 -60 -109 -60 -153
0 -21 -6 -31 -24 -38 -32 -12 -56 -48 -56 -82 l0 -28 411 0 411 0 -7 33 c-11
48 -23 66 -50 73 -17 4 -25 13 -25 28 0 89 -72 196 -162 242 -56 29 -56 29
-87 -87 l-20 -74 0 108 c-1 93 -4 110 -21 127 -21 21 -42 24 -77 10z"/>
<path d="M710 1195 c0 -89 33 -176 106 -279 57 -81 41 -124 -63 -165 -234 -92
-344 -198 -330 -318 9 -80 79 -123 264 -160 127 -25 511 -25 636 0 176 36 244
77 254 155 13 95 -56 179 -214 259 -54 28 -120 58 -146 68 -83 31 -99 83 -47
151 81 105 104 157 116 262 l7 62 -292 0 -291 0 0 -35z"/>
</g>
</svg>
