<?xml version="1.0" standalone="no"?>
<!DOCTYPE svg PUBLIC "-//W3C//DTD SVG 20010904//EN"
 "http://www.w3.org/TR/2001/REC-SVG-20010904/DTD/svg10.dtd">
<svg version="1.0" xmlns="http://www.w3.org/2000/svg"
 width="512.000000pt" height="512.000000pt" viewBox="0 0 512.000000 512.000000"
 preserveAspectRatio="xMidYMid meet">
<metadata>
Created by potrace 1.13, written by Peter Selinger 2001-2015
</metadata>
<g transform="translate(0.000000,512.000000) scale(0.100000,-0.100000)"
fill="#000000" stroke="none">
<path d="M570 2700 l0 -1140 1990 0 1990 0 0 1140 0 1140 -1990 0 -1990 0 0
-1140z m2681 971 c18 -22 19 -52 19 -899 l0 -876 -22 -23 -21 -23 -1238 0
-1238 0 -20 26 c-21 27 -21 32 -21 896 0 596 3 876 11 889 6 11 20 24 32 29
13 5 554 8 1250 7 l1229 -2 19 -24z m1140 0 c18 -22 19 -43 19 -326 0 -291 -1
-303 -21 -329 l-20 -26 -457 0 c-251 0 -462 4 -469 8 -28 18 -33 70 -33 341 0
291 5 330 43 349 15 7 166 10 470 9 l449 -2 19 -24z m-863 -987 c47 -32 16
-124 -42 -124 -37 0 -69 32 -69 68 0 62 60 92 111 56z m289 -6 c13 -12 23 -32
23 -45 0 -30 -42 -73 -71 -73 -32 0 -69 38 -69 72 0 60 71 89 117 46z m283 2
c61 -61 -23 -158 -88 -102 -32 26 -37 63 -12 95 26 33 71 36 100 7z m289 -6
c12 -15 21 -35 21 -46 0 -26 -44 -68 -73 -68 -33 0 -67 35 -67 70 0 65 79 94
119 44z m-509 -276 c54 -17 136 -75 170 -121 78 -107 93 -257 36 -370 -35 -68
-101 -133 -171 -167 -42 -21 -64 -25 -145 -25 -82 0 -103 4 -150 26 -221 106
-272 397 -100 569 95 96 230 129 360 88z m520 -168 c16 -38 5 -67 -30 -85 -48
-25 -100 7 -100 60 0 75 101 94 130 25z m-11 -266 c12 -15 21 -34 21 -44 0
-10 -9 -29 -21 -44 -40 -50 -119 -21 -119 44 0 65 79 94 119 44z"/>
<path d="M857 3553 c-4 -3 -7 -357 -7 -785 l0 -778 1140 0 1140 0 -2 783 -3
782 -1131 3 c-622 1 -1134 -1 -1137 -5z m2104 -442 l24 -19 0 -315 c0 -296 -1
-316 -19 -336 -25 -28 -77 -28 -102 0 -18 19 -19 42 -22 303 -2 154 0 296 3
314 12 66 69 91 116 53z"/>
<path d="M3560 3345 l0 -215 355 0 355 0 -2 213 -3 212 -352 3 -353 2 0 -215z"/>
<path d="M3727 2268 c-107 -23 -167 -98 -167 -210 0 -99 6 -97 159 57 77 76
139 140 137 142 -10 10 -97 18 -129 11z"/>
<path d="M3815 2010 l-139 -139 28 -11 c100 -38 231 29 266 135 13 40 9 130
-6 145 -6 6 -64 -45 -149 -130z"/>
<path d="M1000 1350 l0 -70 70 0 70 0 0 70 0 70 -70 0 -70 0 0 -70z"/>
<path d="M3980 1350 l0 -70 70 0 70 0 0 70 0 70 -70 0 -70 0 0 -70z"/>
</g>
</svg>
