<?xml version="1.0" standalone="no"?>
<!DOCTYPE svg PUBLIC "-//W3C//DTD SVG 20010904//EN"
 "http://www.w3.org/TR/2001/REC-SVG-20010904/DTD/svg10.dtd">
<svg version="1.0" xmlns="http://www.w3.org/2000/svg"
 width="512.000000pt" height="512.000000pt" viewBox="0 0 512.000000 512.000000"
 preserveAspectRatio="xMidYMid meet">
<metadata>
Created by potrace 1.13, written by Peter Selinger 2001-2015
</metadata>
<g transform="translate(0.000000,512.000000) scale(0.100000,-0.100000)"
fill="#000000" stroke="none">
<path d="M832 4710 c-106 -28 -187 -75 -267 -155 -81 -81 -127 -161 -155 -271
-19 -74 -20 -114 -20 -1134 0 -1014 1 -1060 19 -1133 22 -86 37 -118 91 -198
l38 -56 -33 -16 c-75 -36 -94 -74 -305 -622 -110 -285 -200 -521 -200 -526 0
-5 387 -9 914 -9 l915 0 21 58 c12 31 33 87 47 124 30 81 86 148 151 180 47
23 49 23 487 26 474 3 490 2 570 -49 63 -40 97 -92 145 -224 l42 -115 914 0
c527 0 914 4 914 9 0 5 -90 242 -200 527 -130 337 -210 531 -228 554 -16 19
-47 45 -70 58 l-41 23 38 57 c55 81 70 113 92 199 18 73 19 119 19 1133 0
1020 -1 1060 -20 1134 -28 110 -74 190 -155 271 -81 81 -161 127 -271 155 -75
20 -116 20 -1728 19 -1593 0 -1654 -1 -1724 -19z m3353 -391 c53 -15 120 -82
134 -136 8 -30 11 -328 9 -1055 -3 -931 -4 -1016 -20 -1044 -28 -51 -81 -91
-138 -103 -72 -16 -3148 -16 -3220 0 -57 12 -110 52 -138 103 -16 28 -17 113
-20 1044 -2 709 1 1025 8 1054 14 51 74 115 125 133 34 12 285 14 1630 15
1135 0 1601 -3 1630 -11z m-2669 -2766 c-3 -10 -8 -30 -12 -45 l-6 -28 -179 0
-179 0 22 45 22 45 169 0 c156 0 168 -1 163 -17z m616 -28 l-4 -45 -210 0
-210 0 7 37 c4 21 9 41 11 45 3 5 96 8 207 8 l202 0 -3 -45z m658 23 c0 -13 3
-33 6 -45 l6 -23 -237 0 c-212 0 -236 2 -231 16 3 9 6 29 6 45 l0 29 225 0
225 0 0 -22z m604 14 c2 -4 7 -24 11 -45 l7 -37 -201 0 -201 0 -5 28 c-15 68
-34 62 185 62 110 0 201 -3 204 -8z m564 -37 l22 -45 -179 0 -179 0 -6 28 c-4
15 -9 35 -12 45 -5 16 7 17 163 17 l169 0 22 -45z m-2521 -290 l-10 -45 -214
0 c-117 0 -213 2 -213 5 0 3 9 24 20 45 l20 40 204 0 203 0 -10 -45z m659 14
c-3 -17 -6 -38 -6 -45 0 -12 -41 -14 -229 -14 l-228 0 10 45 10 45 225 0 225
0 -7 -31z m744 9 c0 -13 3 -33 6 -45 l6 -23 -276 0 -276 0 0 29 c0 64 -13 61
276 61 l264 0 0 -22z m637 -23 l10 -45 -213 0 -214 0 -6 28 c-3 15 -8 35 -11
45 -4 16 11 17 210 17 l214 0 10 -45z m623 5 c11 -21 20 -42 20 -45 0 -3 -96
-5 -213 -5 l-214 0 -10 45 -10 45 203 0 204 0 20 -40z"/>
<path d="M0 268 c0 -122 2 -134 25 -174 15 -26 43 -54 69 -69 l43 -25 2427 0
c2624 0 2452 -4 2502 52 47 51 54 80 54 218 l0 130 -2560 0 -2560 0 0 -132z"/>
</g>
</svg>
