<?xml version="1.0" standalone="no"?>
<!DOCTYPE svg PUBLIC "-//W3C//DTD SVG 20010904//EN"
 "http://www.w3.org/TR/2001/REC-SVG-20010904/DTD/svg10.dtd">
<svg version="1.0" xmlns="http://www.w3.org/2000/svg"
 width="626.000000pt" height="626.000000pt" viewBox="0 0 626.000000 626.000000"
 preserveAspectRatio="xMidYMid meet">
<metadata>
Created by potrace 1.13, written by Peter Selinger 2001-2015
</metadata>
<g transform="translate(0.000000,626.000000) scale(0.100000,-0.100000)"
fill="#000000" stroke="none">
<path d="M4370 6205 c-251 -37 -494 -136 -709 -288 -101 -72 -310 -277 -367
-360 -158 -233 -242 -427 -288 -667 l-22 -115 -425 -3 -426 -2 -37 30 c-21 16
-62 38 -92 50 -54 20 -74 20 -904 20 -844 0 -850 0 -907 -21 -110 -41 -193
-159 -193 -274 0 -59 35 -149 76 -194 18 -21 59 -50 91 -67 l58 -29 875 0 875
0 48 24 c27 13 61 34 77 47 l28 24 428 -2 428 -3 21 -111 c191 -968 1158
-1549 2095 -1258 537 167 952 596 1101 1139 30 108 59 320 59 427 0 104 -22
285 -46 383 -108 435 -366 791 -742 1024 -186 116 -429 201 -651 230 -110 14
-343 12 -451 -4z m550 -320 c177 -39 365 -121 510 -223 83 -59 242 -218 303
-304 348 -487 339 -1119 -22 -1603 -190 -254 -523 -452 -847 -506 -91 -14
-352 -14 -434 1 -291 52 -532 179 -740 390 -73 75 -108 120 -200 260 -55 84
-119 250 -151 390 -32 138 -34 406 -6 540 59 274 176 489 372 685 196 197 424
321 675 368 47 9 94 18 105 21 45 11 362 -3 435 -19z"/>
<path d="M4545 5760 c-338 -31 -641 -200 -850 -475 -204 -268 -283 -633 -209
-964 78 -349 291 -631 606 -801 325 -174 741 -181 1076 -17 307 150 524 403
621 724 102 339 49 704 -144 998 -53 81 -61 90 -125 161 -237 261 -617 407
-975 374z"/>
<path d="M480 2418 c0 -13 23 -178 50 -368 74 -507 120 -826 130 -905 5 -38
28 -194 50 -345 22 -151 47 -324 55 -383 14 -101 37 -259 50 -334 l6 -33 499
0 c274 0 501 4 504 8 3 4 14 69 26 143 11 73 34 217 50 319 16 102 40 259 54
350 69 446 88 567 111 710 26 169 60 381 100 645 15 94 29 180 32 193 l5 22
-861 0 -861 0 0 -22z"/>
<path d="M3405 2177 c-3 -12 -5 -342 -3 -732 l3 -710 26 -55 c30 -63 84 -118
149 -152 l45 -23 783 -3 784 -2 58 26 c66 29 118 79 152 144 19 37 24 66 28
155 l5 110 99 12 c144 18 277 68 342 128 15 14 30 25 33 25 15 0 120 139 151
198 81 156 81 382 -1 545 -33 66 -103 154 -160 205 -45 39 -147 95 -229 124
l-65 23 -1097 3 -1097 3 -6 -24z m2208 -249 c89 -25 182 -104 224 -190 47 -93
46 -243 -2 -337 -31 -63 -107 -139 -167 -169 -63 -31 -216 -52 -229 -31 -10
17 -12 732 -1 743 9 10 120 0 175 -16z"/>
<path d="M2873 392 c-16 -10 2 -103 32 -162 29 -57 111 -135 173 -163 l47 -22
1420 0 1420 0 50 25 c112 54 196 170 199 272 l1 53 -1665 2 c-916 2 -1670 -1
-1677 -5z"/>
</g>
</svg>
