<?xml version="1.0" standalone="no"?>
<!DOCTYPE svg PUBLIC "-//W3C//DTD SVG 20010904//EN"
 "http://www.w3.org/TR/2001/REC-SVG-20010904/DTD/svg10.dtd">
<svg version="1.0" xmlns="http://www.w3.org/2000/svg"
 width="626.000000pt" height="626.000000pt" viewBox="0 0 626.000000 626.000000"
 preserveAspectRatio="xMidYMid meet">
<metadata>
Created by potrace 1.13, written by Peter Selinger 2001-2015
</metadata>
<g transform="translate(0.000000,626.000000) scale(0.100000,-0.100000)"
fill="#000000" stroke="none">
<path d="M2444 6130 c-48 -99 -64 -122 -89 -132 -57 -22 -310 -129 -330 -138
-17 -9 -176 -75 -345 -145 -30 -13 -116 -48 -190 -80 -74 -31 -166 -70 -204
-86 -38 -15 -72 -32 -76 -36 -7 -7 -37 -314 -75 -763 -8 -96 -17 -195 -20
-220 -3 -24 -14 -150 -25 -280 -11 -129 -27 -307 -35 -395 -25 -265 -85 -949
-104 -1190 -6 -66 -13 -176 -16 -245 -7 -136 -29 -525 -45 -770 -5 -85 -15
-245 -20 -355 -11 -198 -24 -409 -36 -598 l-7 -97 249 0 249 0 59 353 c31 193
66 402 77 462 10 61 59 358 109 660 49 303 98 600 109 660 10 61 36 217 57
347 22 131 42 238 45 238 4 0 10 -12 13 -27 7 -27 66 -250 86 -323 6 -19 23
-84 39 -145 l30 -110 -80 -335 c-80 -333 -107 -450 -155 -650 -14 -58 -33
-141 -44 -185 -10 -44 -32 -136 -49 -205 -16 -69 -41 -172 -55 -230 -62 -259
-107 -453 -109 -471 -1 -15 11 -25 53 -43 30 -13 145 -62 255 -110 110 -49
245 -107 300 -131 55 -23 195 -84 310 -135 116 -51 235 -102 265 -115 30 -13
96 -41 147 -63 l91 -40 10 42 c11 41 113 543 137 666 44 235 100 489 106 482
7 -6 68 -300 190 -907 27 -137 52 -257 55 -267 4 -14 17 -11 97 24 51 22 117
51 147 63 30 13 118 51 195 85 77 34 169 74 205 90 36 15 171 73 300 130 129
56 271 118 315 136 148 64 170 77 167 99 -2 11 -16 74 -32 140 -16 66 -83 350
-150 630 -125 526 -153 645 -196 825 -55 227 -74 308 -93 390 l-19 85 23 90
c13 50 37 142 54 205 17 63 42 157 56 209 23 88 31 110 38 100 2 -2 20 -110
41 -239 21 -129 46 -284 57 -345 10 -60 35 -209 54 -330 20 -121 42 -256 50
-300 8 -44 33 -192 55 -330 22 -137 49 -299 59 -360 11 -60 46 -269 77 -462
l59 -353 249 0 249 0 -6 88 c-4 48 -15 245 -26 437 -11 193 -25 427 -31 520
-25 411 -39 649 -45 775 -8 162 -33 479 -84 1040 -11 124 -25 279 -31 345 -6
66 -15 166 -21 222 -5 56 -16 180 -24 275 -8 95 -23 274 -35 398 -11 124 -31
353 -45 510 -14 157 -27 290 -29 295 -3 10 -50 31 -281 127 -38 16 -95 40
-125 53 -30 13 -86 37 -125 53 -136 57 -250 105 -280 117 -16 8 -61 27 -100
43 -38 16 -115 48 -170 71 l-101 42 -55 112 c-30 62 -59 111 -64 110 -23 -4
-141 -529 -190 -838 -7 -44 -22 -132 -34 -195 -11 -63 -32 -182 -47 -265 -14
-82 -36 -211 -49 -285 -13 -74 -38 -214 -54 -310 -17 -96 -55 -317 -86 -490
-97 -560 -133 -764 -145 -837 -6 -40 -16 -73 -21 -73 -5 0 -9 2 -9 5 0 8 -83
493 -125 730 -9 50 -25 141 -36 203 -39 227 -59 341 -94 542 -20 113 -45 257
-56 320 -11 63 -38 219 -60 345 -22 127 -47 268 -55 315 -38 238 -69 387 -123
604 -33 131 -62 240 -64 242 -2 2 -30 -50 -63 -116z m1924 -1384 l72 -58 0
-103 c0 -121 24 -105 -205 -135 -88 -11 -171 -22 -185 -24 -14 -3 -42 -7 -62
-11 -22 -3 -38 -2 -38 3 0 10 247 320 298 374 15 17 30 24 36 19 6 -4 44 -34
84 -65z"/>
<path d="M2950 6025 c0 -3 27 -59 59 -124 l60 -120 -47 -63 c-26 -35 -55 -74
-64 -88 -9 -14 -45 -63 -79 -110 l-62 -85 12 -70 c20 -120 80 -465 101 -575
11 -58 31 -170 45 -250 14 -80 34 -194 45 -255 11 -60 33 -186 50 -280 16 -93
35 -200 42 -237 7 -38 15 -68 18 -68 3 0 25 109 49 243 23 133 56 316 72 407
16 91 38 215 49 275 21 116 58 326 109 612 17 95 31 180 31 188 0 9 -22 46
-50 83 -27 37 -62 85 -78 107 -16 22 -50 68 -75 103 l-47 62 60 120 c33 66 60
122 60 125 0 3 -81 5 -180 5 -99 0 -180 -2 -180 -5z"/>
</g>
</svg>
